PathFileType	4	(X/Y/Z)	pose_F01_0-95.trc
DataRate	CameraRate	NumFrames	NumMarkers	Units	OrigDataRate	OrigDataStartFrame	OrigNumFrames
30	30	9	21	m	30	47	95
Frame#	Time	CHip			RHip			RKnee			RAnkle			RBigToe			RSmallToe			RHeel			LHip			LKnee			LAnkle			LBigToe			LSmallToe			LHeel			Neck			Nose			RShoulder			RElbow			RWrist			LShoulder			LElbow			LWrist			
		X1	Y1	Z1	X2	Y2	Z2	X3	Y3	Z3	X4	Y4	Z4	X5	Y5	Z5	X6	Y6	Z6	X7	Y7	Z7	X8	Y8	Z8	X9	Y9	Z9	X10	Y10	Z10	X11	Y11	Z11	X12	Y12	Z12	X13	Y13	Z13	X14	Y14	Z14	X15	Y15	Z15	X16	Y16	Z16	X17	Y17	Z17	X18	Y18	Z18	X19	Y19	Z19	X20	Y20	Z20	X21	Y21	Z21	
47	1.5666666666666667	-0.2567666748492266	1.8888561587641104	-0.48683819573593595	-0.27339385611175826	1.885886310438568	-0.43737686697722866	-0.2923745182994	1.7310606975952136	-0.4061688637950915													-0.23542055728513736	1.8922406743949636	-0.5239536432579283	-0.24245620586809646	1.744499824429111	-0.4761472251837363	-0.2253502671904718	1.577989902311958	-0.42598341480450597	-0.23297932310735212	1.561609456226482	-0.49006873929706174	-0.22200524242274813	1.5669494696631225	-0.49817429077490794	-0.22898563538360586	1.5765946659049777	-0.38549589763735126	-0.24405898563625777	2.051438545288608	-0.46299203978979975	-0.23734261151559238	2.116215015510629	-0.5418368797643169	-0.269434450525046	2.055564908370286	-0.4048302033685353	-0.28558812547101353	1.9688799893642326	-0.3680289711293347	-0.299266466174844	1.8881043179152923	-0.3810402352667936	-0.21748451931939897	2.048550950488251	-0.522207214522988	-0.2197069825474037	1.9728430492268547	-0.6014549726252169	-0.23038452382738028	2.0350722346279753	-0.6334990206794866
48	1.6	-0.25348658151061393	1.8890817763659846	-0.4859111673717292	-0.2709617123747366	1.8875291974283501	-0.43941710834556663	-0.2906359108236196	1.73271324222051	-0.4035107790363008													-0.23404625734356777	1.8916809925281866	-0.5289518280164767	-0.24012580098013186	1.7457118747061793	-0.47869905963031095	-0.2253502671904718	1.577989902311958	-0.42598341480450597	-0.23297932310735212	1.561609456226482	-0.49006873929706174	-0.22200524242274813	1.5669494696631225	-0.49817429077490794	-0.22898563538360586	1.5765946659049777	-0.38549589763735126	-0.24213873407889963	2.0515002448362636	-0.4649770850276965	-0.2352708725664507	2.115112243409821	-0.5442631543553628	-0.2682711829084527	2.0542028592368458	-0.40124580219158584	-0.2818544671994561	1.9692331335408249	-0.37221869517105566	-0.29600344733152956	1.8903863545993929	-0.380008619431657	-0.2173564617397821	2.0497305189705206	-0.522103941417606	-0.21383086435427914	1.9793069668062857	-0.611957135222915	-0.2300000608845026	2.051789649573731	-0.6271632671283692
49	1.6333333333333333	-0.2526439048894255	1.8912708052466118	-0.4831891430677253	-0.2702789847649133	1.8880200628905772	-0.43671999881005175	-0.28754928523751294	1.735990496336577	-0.4075191798015718													-0.23238744915642637	1.8942947588346986	-0.5233227426551674	-0.23860654259238878	1.74992486499801	-0.4810672637999284	-0.2253502671904718	1.577989902311958	-0.42598341480450597	-0.23297932310735212	1.561609456226482	-0.49006873929706174	-0.22200524242274813	1.5669494696631225	-0.49817429077490794	-0.22898563538360586	1.5765946659049777	-0.38549589763735126	-0.24216928936971424	2.050291010239633	-0.46513522467026874	-0.23134499286161847	2.1128392757005043	-0.5482287814301637	-0.26648821372704457	2.053041855217919	-0.4034147301603475	-0.2809242742359991	1.9690620061821025	-0.36955065334705206	-0.29553129575897763	1.8938903692219697	-0.37803879176208777	-0.2155367080250219	2.0473260754129194	-0.524429460508139	-0.21039204260820124	1.9868534885463407	-0.6205968816044523	-0.22727111150993656	2.0553694511833753	-0.6185413347437674
50	1.6666666666666667	-0.2524584230239125	1.8927856260527476	-0.4833435546284492	-0.2701426626590499	1.889520581574753	-0.4368563643412459	-0.28746610017757424	1.735608789569415	-0.40744337718578244													-0.23231378684138826	1.8943859691065437	-0.5233975220598863	-0.23610699536712443	1.7490348324331855	-0.4834580320926282	-0.2253502671904718	1.577989902311958	-0.42598341480450597	-0.23297932310735212	1.561609456226482	-0.49006873929706174	-0.22200524242274813	1.5669494696631225	-0.49817429077490794	-0.22898563538360586	1.5765946659049777	-0.38549589763735126	-0.23914443433962168	2.051416754345903	-0.4642366542936901	-0.22738178773896683	2.1116940756820055	-0.5519349861707169	-0.26453618870262197	2.054289881487613	-0.4054124601087914	-0.27887682512347123	1.969000850762248	-0.37118831323443635	-0.2949649984092959	1.8911122632302195	-0.3773265008551344	-0.21326704927844908	2.0498327603751263	-0.5263649601554774	-0.21107270487628943	1.9922624280118912	-0.6244416173729946	-0.22524158063283362	2.061137142555116	-0.6131068596580069
51	1.7	-0.24655419294901176	1.8943900275240455	-0.48144679298231846	-0.2680948328211129	1.8911388034608743	-0.43921905738523115	-0.2861182927110708	1.736710915289485	-0.40447962623716993													-0.22932576866714693	1.8969229785193997	-0.5227350508258215	-0.23411387322207888	1.752744014369231	-0.47720426637792673	-0.2253502671904718	1.577989902311958	-0.42598341480450597	-0.23297932310735212	1.561609456226482	-0.49006873929706174	-0.22200524242274813	1.5669494696631225	-0.49817429077490794	-0.22898563538360586	1.5765946659049777	-0.38549589763735126	-0.23913965161705902	2.0514449315559373	-0.4642144358670407	-0.22536476566733335	2.1106817247635723	-0.554346682265588	-0.264549990918394	2.055592226954431	-0.4059434530115305	-0.2788500948919187	1.9755719567397279	-0.37299436733725916	-0.29319239508202816	1.9007074788534173	-0.38090119146298534	-0.2124039916103323	2.0496701081371294	-0.5233673245574705	-0.21017685432641306	1.9943685568178795	-0.6218145789032961	-0.22327258316813317	2.0591962388036817	-0.6153752124706913
52	1.7333333333333334	-0.24540303997474677	1.8931978263235032	-0.4777927743098786	-0.2680275473506013	1.8898239619041806	-0.43887781670321224	-0.2860448234274524	1.7370262533448846	-0.4044307477856163													-0.2281825231493579	1.8957505212060086	-0.5192425937949612	-0.23438997448957644	1.7526703606041039	-0.4679951815657429	-0.2253502671904718	1.577989902311958	-0.42598341480450597	-0.23297932310735212	1.561609456226482	-0.49006873929706174	-0.22200524242274813	1.5669494696631225	-0.49817429077490794	-0.22898563538360586	1.5765946659049777	-0.38549589763735126	-0.23622465128244638	2.051702563484385	-0.47157555526770384	-0.22528189202442417	2.1107037752168476	-0.5543850871839525	-0.26261012563597863	2.0556739096829575	-0.4081967964865387	-0.2767738077222033	1.9715127778065134	-0.37366893315026106	-0.29293726946509424	1.898780697203905	-0.3803365299504247	-0.2112513882064944	2.049960562266719	-0.5286078138732061	-0.2100441986116063	1.9956126935291945	-0.6217187919638394	-0.22228931742527672	2.060923005705959	-0.6127268713164469
53	1.7666666666666666	-0.2440785164356193	1.890954612635208	-0.47417566132696204	-0.26572855719461363	1.8890018774518982	-0.4322667300477873	-0.2849788323488584	1.7395969938701714	-0.40159153661833963													-0.22866598647682332	1.8925986385205285	-0.5216486198745769	-0.23391692345164383	1.751731830895191	-0.4684167212995621	-0.2253502671904718	1.577989902311958	-0.42598341480450597	-0.23297932310735212	1.561609456226482	-0.49006873929706174	-0.22200524242274813	1.5669494696631225	-0.49817429077490794	-0.22898563538360586	1.5765946659049777	-0.38549589763735126	-0.23332450146139308	2.051596984416345	-0.47063589478541357	-0.22325936415235942	2.1083776127430687	-0.5554525722672613	-0.26065540132288223	2.0531301707232306	-0.4090481443655225	-0.2739910662770309	1.9726931257933533	-0.3731606470880963	-0.292126500156213	1.9011429102768134	-0.3779573273457526	-0.20836672048570398	2.049859963377945	-0.527727550274369	-0.21004710645187907	1.9955404397589112	-0.621685640503634	-0.2213051675617521	2.0621885143930103	-0.6095407415587594
54	1.8	-0.24455694295062982	1.89733136746423	-0.47556992393134656	-0.2649695752006852	1.8934554111664557	-0.42980330592745125	-0.284754868302303	1.738456245387915	-0.401480906532541													-0.22930159504272962	1.8975506670764621	-0.5229398373258132	-0.23513315489822664	1.7532995796071313	-0.47164718663738614	-0.2253502671904718	1.577989902311958	-0.42598341480450597	-0.23297932310735212	1.561609456226482	-0.49006873929706174	-0.22200524242274813	1.5669494696631225	-0.49817429077490794	-0.22898563538360586	1.5765946659049777	-0.38549589763735126	-0.23235814468623597	2.0506543439690486	-0.47602992219913415	-0.22209351445610642	2.108564340204879	-0.5605150323139606	-0.25685380906067407	2.0558847294851805	-0.41443400698679633	-0.2739385826411497	1.974108699740274	-0.3735867529851907	-0.28820510977835545	1.9002409502088147	-0.3734139760625515	-0.2092373619345074	2.0499188360702125	-0.5309265295654481	-0.20998553977523174	1.9953669633239866	-0.6216685075304528	-0.2213058380246563	2.060964297158082	-0.6096798725973808
55	1.8333333333333333	-0.243178225849941	1.8960025114260042	-0.4719440812382132	-0.2623771565136917	1.8944701730983708	-0.42328527410124983	-0.28500238684934087	1.7405633694596974	-0.40138483819299764													-0.22796041867152148	1.8989489320241042	-0.5197717112847384	-0.23320662566697156	1.7535682302387827	-0.46511384891471025	-0.2253502671904718	1.577989902311958	-0.42598341480450597	-0.23297932310735212	1.561609456226482	-0.49006873929706174	-0.22200524242274813	1.5669494696631225	-0.49817429077490794	-0.22898563538360586	1.5765946659049777	-0.38549589763735126	-0.23235477504358756	2.05069008489011	-0.4760622418626357	-0.2201008800981943	2.1072598827652946	-0.5620514336464251	-0.2558881507883034	2.055770358052931	-0.4113345039993818	-0.2739067064168862	1.9702378111153294	-0.37246394915584063	-0.28596417395130874	1.9001188505150635	-0.3668358125712596	-0.20736350813282367	2.0488223654304765	-0.5332918731849909	-0.20911135194410213	1.995335626245423	-0.6186468523140553	-0.2184731244734327	2.0582653928253265	-0.6084991373596543
